<?xml version="1.0" encoding="utf-8"?>
<!-- Generator: Adobe Illustrator 13.0.2, SVG Export Plug-In . SVG Version: 6.00 Build 14948)  -->
<!DOCTYPE svg PUBLIC "-//W3C//DTD SVG 1.1//EN" "http://www.w3.org/Graphics/SVG/1.1/DTD/svg11.dtd">
<svg version="1.1" id="Layer_1" xmlns="http://www.w3.org/2000/svg" xmlns:xlink="http://www.w3.org/1999/xlink" x="0px" y="0px"
	 width="382px" height="384px" viewBox="0 0 382 384" enable-background="new 0 0 382 384" xml:space="preserve">
<g>
	<defs>
		<rect id="SVGID_1_" width="382" height="384"/>
	</defs>
	<use xlink:href="#SVGID_1_"  display="none" overflow="visible" fill="#FFFFFF"/>
	<clipPath id="SVGID_2_">
		<use xlink:href="#SVGID_1_"  display="none" overflow="visible"/>
	</clipPath>
	<path clip-path="url(#SVGID_2_)" fill="#FFFFFF" d="M183.635,23.632l-56.401,129.471V23.632H183.635z M264.456,93.214
		c0,21.125-6.008,36.531-16.182,47.484L196.911,24.407C235.384,28.09,264.456,46.792,264.456,93.214 M190.032,25.859l52.619,120.07
		c-15.115,12.21-36.727,16.668-60.858,16.668h-51.265L190.032,25.859z M120.064,17.235v149.722L68.41,285.867h8.237l43.417-101.368
		v101.368h7.17V169.771h55.142c24.518,0,47-4.555,63.379-16.767l58.242,132.862h8.238l-60.764-137.803
		c12.791-12.115,20.546-29.947,20.546-54.756c0-57.079-40.702-76.073-89.642-76.073H120.064z M288.649,341.803
		c0,6.36-4.318,8.401-9.891,8.401h-7.064v-16.8h7.064C284.331,333.404,288.649,335.446,288.649,341.803 M290.062,341.803
		c0-7.143-5.102-9.578-11.223-9.578h-8.557v33.912h1.412v-14.915l17.818,14.915h2.119L273.97,351.38h4.869
		C284.96,351.38,290.062,348.947,290.062,341.803 M257.722,349.182c0,9.891-5.729,15.699-15.621,15.699h-8.162v-31.399h8.162
		C251.993,333.481,257.722,339.291,257.722,349.182 M217.14,366.137h1.885v-33.912h-1.414v32.027l-23.471-32.027h-1.963v33.912
		h1.412V333.72L217.14,366.137z M158.581,352.793h16.248l5.732,13.344h1.569l-14.6-33.912h-1.571l-14.677,33.912h1.648
		L158.581,352.793z M166.745,333.72l7.614,17.817h-15.227L166.745,333.72z M31.497,341.803c0,6.36-4.317,8.321-9.893,8.401
		l-7.063,0.078v-16.878h7.063C27.18,333.404,31.497,335.446,31.497,341.803 M76.317,332.225h-1.412v23.472
		c0,6.516,3.452,11.068,10.362,11.068c6.984,0,10.517-4.553,10.517-11.068v-23.472h-1.412v23.394c0,5.886-2.983,9.812-9.105,9.812
		c-6.044,0-8.792-3.927-8.95-9.812V332.225z M110.541,332.225h-1.412v33.912h15.7v-1.256h-14.288V332.225z M301.837,332.225v33.912
		h18.682v-1.256h-17.27v-15.227h17.27v-1.257h-17.27v-14.916h17.27v-1.257H301.837z M32.909,341.803
		c0-7.143-5.103-9.578-11.225-9.578h-8.556v33.912h1.413V351.38h7.143C27.806,351.38,32.909,348.947,32.909,341.803 M42.878,352.793
		h16.249l5.73,13.344h1.57l-14.6-33.912h-1.57l-14.679,33.912h1.649L42.878,352.793z M51.042,333.72l7.614,17.817H43.429
		L51.042,333.72z M110.541,332.225h-1.412v33.912h15.7v-1.256h-14.288V332.225z M259.214,349.182
		c0-10.675-6.279-16.957-16.955-16.957h-9.734v33.912h9.734C252.935,366.137,259.214,359.855,259.214,349.182 M301.837,332.225
		v33.912h18.682v-1.256h-17.27v-15.227h17.27v-1.257h-17.27v-14.916h17.27v-1.257H301.837z M331.038,332.225h-1.57l9.498,33.912
		h1.883l8.242-30.848l8.242,30.848h1.963l9.576-33.912h-1.492l-9.025,32.027l-8.635-32.027h-1.18l-8.555,32.027L331.038,332.225z"/>
</g>
</svg>
