<?xml version="1.0" encoding="utf-8"?>
<!-- Generator: Adobe Illustrator 13.0.2, SVG Export Plug-In . SVG Version: 6.00 Build 14948)  -->
<!DOCTYPE svg PUBLIC "-//W3C//DTD SVG 1.1//EN" "http://www.w3.org/Graphics/SVG/1.1/DTD/svg11.dtd">
<svg version="1.1" id="Layer_1" xmlns="http://www.w3.org/2000/svg" xmlns:xlink="http://www.w3.org/1999/xlink" x="0px" y="0px"
	 width="243.825px" height="268.632px" viewBox="0 0 243.825 268.632" enable-background="new 0 0 243.825 268.632"
	 xml:space="preserve">
<g>
	<path fill="#FFFFFF" d="M51.654,167.264v101.368h7.17V152.536h55.142c24.518,0,47-4.555,63.379-16.767l58.242,132.862h8.238
		l-60.764-137.803c12.791-12.115,20.546-29.947,20.546-54.756C203.607,18.994,162.905,0,113.966,0H51.654v149.722L0,268.632h8.237
		L51.654,167.264z M196.046,75.979c0,21.125-6.008,36.531-16.182,47.484L128.501,7.172
		C166.974,10.854,196.046,29.557,196.046,75.979z M174.241,128.694c-15.115,12.21-36.727,16.668-60.858,16.668H62.118L121.622,8.624
		L174.241,128.694z M58.824,6.396h56.401L58.824,135.867V6.396z"/>
</g>
</svg>
